<svg width="24" height="24" viewBox="0 0 24 24" fill="none" xmlns="http://www.w3.org/2000/svg">
<path d="M13.3333 12C13.3333 12.6793 13.128 13.3093 12.7787 13.836L10.862 11.9193C10.7367 11.794 10.6667 11.6247 10.6667 11.448V8.734C12.188 9.04267 13.3333 10.3873 13.3333 12ZM9.33333 11.724V8.734C7.63333 9.07933 6.40267 10.718 6.71533 12.5787C6.932 13.868 7.92867 14.9407 9.20133 15.24C10.1813 15.47 11.108 15.262 11.836 14.7793L9.72333 12.6667C9.47333 12.4167 9.33333 12.0773 9.33333 11.724ZM16.6667 8.66667H15.3333C14.9647 8.66667 14.6667 8.96533 14.6667 9.33333C14.6667 9.70133 14.9647 10 15.3333 10H16.6667C17.0353 10 17.3333 9.70133 17.3333 9.33333C17.3333 8.96533 17.0353 8.66667 16.6667 8.66667ZM16.6667 11.3333H15.3333C14.9647 11.3333 14.6667 11.632 14.6667 12C14.6667 12.368 14.9647 12.6667 15.3333 12.6667H16.6667C17.0353 12.6667 17.3333 12.368 17.3333 12C17.3333 11.632 17.0353 11.3333 16.6667 11.3333ZM16.6667 14H15.3333C14.9647 14 14.6667 14.2987 14.6667 14.6667C14.6667 15.0347 14.9647 15.3333 15.3333 15.3333H16.6667C17.0353 15.3333 17.3333 15.0347 17.3333 14.6667C17.3333 14.2987 17.0353 14 16.6667 14ZM20 9.33333V14.6667C20 16.5047 18.5047 18 16.6667 18H7.33333C5.49533 18 4 16.5047 4 14.6667V9.33333C4 7.49533 5.49533 6 7.33333 6H16.6667C18.5047 6 20 7.49533 20 9.33333ZM18.6667 9.33333C18.6667 8.23067 17.7693 7.33333 16.6667 7.33333H7.33333C6.23067 7.33333 5.33333 8.23067 5.33333 9.33333V14.6667C5.33333 15.7693 6.23067 16.6667 7.33333 16.6667H16.6667C17.7693 16.6667 18.6667 15.7693 18.6667 14.6667V9.33333Z" fill="black"/>
</svg>
