<svg width="18" height="18" viewBox="0 0 18 18" fill="none" xmlns="http://www.w3.org/2000/svg">
<circle cx="8.9682" cy="8.9682" r="8.11409" stroke="black" stroke-width="1.70823"/>
<path d="M8.20477 10.9538C8.20477 10.6984 8.22882 10.4523 8.27694 10.2154C8.32875 9.97482 8.41203 9.75275 8.52677 9.54919C8.6267 9.35303 8.73773 9.19758 8.85987 9.08284C8.98201 8.9644 9.11895 8.84782 9.2707 8.73308C9.42245 8.61464 9.59085 8.45734 9.77591 8.26118C9.92766 8.09463 10.0276 7.92993 10.0757 7.76708C10.1238 7.60053 10.1479 7.42287 10.1479 7.23411C10.1479 7.11197 10.1349 6.99723 10.109 6.8899C10.0831 6.78257 10.0368 6.69004 9.97022 6.61231C9.86659 6.47537 9.73335 6.37914 9.57049 6.32362C9.40764 6.2644 9.23369 6.2348 9.04863 6.2348C8.89688 6.2348 8.75069 6.25515 8.61004 6.29586C8.4731 6.33288 8.35651 6.39209 8.26028 6.47352C8.14925 6.56235 8.06782 6.67153 8.01601 6.80107C7.96419 6.93061 7.94013 7.07311 7.94383 7.22856H6.53369C6.5707 6.85844 6.67063 6.51608 6.83348 6.20148C7.00004 5.88318 7.21841 5.62966 7.48859 5.4409C7.69956 5.28545 7.93643 5.16886 8.19921 5.09114C8.4657 5.01341 8.73218 4.97455 8.99867 4.97455C9.40579 4.97455 9.78886 5.03747 10.1479 5.16331C10.5106 5.28915 10.8122 5.49641 11.0528 5.7851C11.2194 5.97386 11.3452 6.19223 11.4303 6.44021C11.5192 6.68819 11.5636 6.93987 11.5636 7.19525C11.5636 7.57647 11.4803 7.92438 11.3137 8.23898C11.1509 8.55357 10.9436 8.84412 10.6919 9.1106C10.5735 9.23644 10.4606 9.34747 10.3533 9.4437C10.246 9.53993 10.146 9.63431 10.0535 9.72684C9.96467 9.81567 9.89065 9.91005 9.83143 10.01C9.72779 10.1839 9.66673 10.332 9.64822 10.4541C9.62971 10.5726 9.62046 10.7391 9.62046 10.9538H8.20477ZM8.21587 13.1245V11.6533H9.62046V13.1245H8.21587Z" fill="black"/>
</svg>
